<mxfile host="app.diagrams.net" modified="2023-09-01T11:39:25.497Z" agent="Mozilla/5.0 (Windows NT 10.0; Win64; x64) AppleWebKit/537.36 (KHTML, like Gecko) Chrome/116.0.0.0 Safari/537.36" etag="4KSaX1H5d46LCMw1ppgd" version="21.7.1" type="device">
  <diagram name="Página-1" id="8UIYeSZsSsEoPtJDdCNr">
    <mxGraphModel dx="1434" dy="790" grid="1" gridSize="10" guides="1" tooltips="1" connect="1" arrows="1" fold="1" page="1" pageScale="1" pageWidth="827" pageHeight="1169" math="0" shadow="0">
      <root>
        <mxCell id="0" />
        <mxCell id="1" parent="0" />
        <mxCell id="fzq7VNugiyjxH4nTjP60-2" style="edgeStyle=orthogonalEdgeStyle;rounded=0;orthogonalLoop=1;jettySize=auto;html=1;exitX=0.5;exitY=1;exitDx=0;exitDy=0;" edge="1" parent="1" source="fzq7VNugiyjxH4nTjP60-1">
          <mxGeometry relative="1" as="geometry">
            <mxPoint x="430" y="160" as="targetPoint" />
          </mxGeometry>
        </mxCell>
        <mxCell id="fzq7VNugiyjxH4nTjP60-1" value="&lt;font style=&quot;font-size: 17px;&quot;&gt;Inicio&lt;/font&gt;" style="ellipse;whiteSpace=wrap;html=1;fillColor=#f8cecc;strokeColor=#b85450;" vertex="1" parent="1">
          <mxGeometry x="370" y="40" width="120" height="80" as="geometry" />
        </mxCell>
        <mxCell id="fzq7VNugiyjxH4nTjP60-4" style="edgeStyle=orthogonalEdgeStyle;rounded=0;orthogonalLoop=1;jettySize=auto;html=1;exitX=0.5;exitY=1;exitDx=0;exitDy=0;" edge="1" parent="1" source="fzq7VNugiyjxH4nTjP60-3">
          <mxGeometry relative="1" as="geometry">
            <mxPoint x="430" y="280" as="targetPoint" />
          </mxGeometry>
        </mxCell>
        <mxCell id="fzq7VNugiyjxH4nTjP60-3" value="&lt;font style=&quot;font-size: 14px;&quot;&gt;salário&lt;/font&gt;;&lt;br&gt;&lt;font style=&quot;font-size: 14px;&quot;&gt;irrf&lt;/font&gt;;" style="rounded=1;whiteSpace=wrap;html=1;fillColor=#d5e8d4;strokeColor=#82b366;" vertex="1" parent="1">
          <mxGeometry x="370" y="160" width="120" height="60" as="geometry" />
        </mxCell>
        <mxCell id="fzq7VNugiyjxH4nTjP60-6" style="edgeStyle=orthogonalEdgeStyle;rounded=0;orthogonalLoop=1;jettySize=auto;html=1;exitX=0.5;exitY=1;exitDx=0;exitDy=0;exitPerimeter=0;" edge="1" parent="1" source="fzq7VNugiyjxH4nTjP60-5">
          <mxGeometry relative="1" as="geometry">
            <mxPoint x="430" y="400" as="targetPoint" />
          </mxGeometry>
        </mxCell>
        <mxCell id="fzq7VNugiyjxH4nTjP60-5" value="&lt;font style=&quot;font-size: 13px;&quot;&gt;&quot;Digite o salário do funcionário&lt;/font&gt;&quot;" style="strokeWidth=2;html=1;shape=mxgraph.flowchart.display;whiteSpace=wrap;fillColor=#fff2cc;strokeColor=#d6b656;" vertex="1" parent="1">
          <mxGeometry x="365" y="280" width="130" height="70" as="geometry" />
        </mxCell>
        <mxCell id="fzq7VNugiyjxH4nTjP60-10" style="edgeStyle=orthogonalEdgeStyle;rounded=0;orthogonalLoop=1;jettySize=auto;html=1;exitX=0.5;exitY=1;exitDx=0;exitDy=0;exitPerimeter=0;" edge="1" parent="1" source="fzq7VNugiyjxH4nTjP60-7">
          <mxGeometry relative="1" as="geometry">
            <mxPoint x="430" y="560" as="targetPoint" />
          </mxGeometry>
        </mxCell>
        <mxCell id="fzq7VNugiyjxH4nTjP60-35" style="edgeStyle=orthogonalEdgeStyle;rounded=0;orthogonalLoop=1;jettySize=auto;html=1;exitX=1;exitY=0.5;exitDx=0;exitDy=0;exitPerimeter=0;entryX=0;entryY=0.25;entryDx=0;entryDy=0;" edge="1" parent="1" source="fzq7VNugiyjxH4nTjP60-7" target="fzq7VNugiyjxH4nTjP60-9">
          <mxGeometry relative="1" as="geometry" />
        </mxCell>
        <mxCell id="fzq7VNugiyjxH4nTjP60-7" value="salário &amp;lt; 2112" style="strokeWidth=2;html=1;shape=mxgraph.flowchart.decision;whiteSpace=wrap;fillColor=#e1d5e7;strokeColor=#9673a6;" vertex="1" parent="1">
          <mxGeometry x="380" y="400" width="100" height="100" as="geometry" />
        </mxCell>
        <mxCell id="fzq7VNugiyjxH4nTjP60-9" value="irrf = 0;" style="rounded=1;whiteSpace=wrap;html=1;absoluteArcSize=1;arcSize=14;strokeWidth=2;fillColor=#d5e8d4;strokeColor=#82b366;" vertex="1" parent="1">
          <mxGeometry x="520" y="440" width="70" height="40" as="geometry" />
        </mxCell>
        <mxCell id="fzq7VNugiyjxH4nTjP60-11" style="edgeStyle=orthogonalEdgeStyle;rounded=0;orthogonalLoop=1;jettySize=auto;html=1;exitX=0.5;exitY=1;exitDx=0;exitDy=0;exitPerimeter=0;" edge="1" source="fzq7VNugiyjxH4nTjP60-12" parent="1">
          <mxGeometry relative="1" as="geometry">
            <mxPoint x="430" y="710" as="targetPoint" />
          </mxGeometry>
        </mxCell>
        <mxCell id="fzq7VNugiyjxH4nTjP60-13" style="edgeStyle=orthogonalEdgeStyle;rounded=0;orthogonalLoop=1;jettySize=auto;html=1;exitX=1;exitY=0.5;exitDx=0;exitDy=0;exitPerimeter=0;" edge="1" parent="1" source="fzq7VNugiyjxH4nTjP60-12">
          <mxGeometry relative="1" as="geometry">
            <mxPoint x="520" y="610" as="targetPoint" />
          </mxGeometry>
        </mxCell>
        <mxCell id="fzq7VNugiyjxH4nTjP60-12" value="salário &amp;lt; 2826.66" style="strokeWidth=2;html=1;shape=mxgraph.flowchart.decision;whiteSpace=wrap;fillColor=#e1d5e7;strokeColor=#9673a6;" vertex="1" parent="1">
          <mxGeometry x="375" y="560" width="110" height="100" as="geometry" />
        </mxCell>
        <mxCell id="fzq7VNugiyjxH4nTjP60-14" value="irrf = salário * 7.5;" style="rounded=1;whiteSpace=wrap;html=1;absoluteArcSize=1;arcSize=14;strokeWidth=2;fillColor=#d5e8d4;strokeColor=#82b366;" vertex="1" parent="1">
          <mxGeometry x="520" y="590" width="70" height="40" as="geometry" />
        </mxCell>
        <mxCell id="fzq7VNugiyjxH4nTjP60-18" style="edgeStyle=orthogonalEdgeStyle;rounded=0;orthogonalLoop=1;jettySize=auto;html=1;exitX=1;exitY=0.5;exitDx=0;exitDy=0;exitPerimeter=0;entryX=0;entryY=0.5;entryDx=0;entryDy=0;" edge="1" parent="1" source="fzq7VNugiyjxH4nTjP60-15" target="fzq7VNugiyjxH4nTjP60-17">
          <mxGeometry relative="1" as="geometry" />
        </mxCell>
        <mxCell id="fzq7VNugiyjxH4nTjP60-19" style="edgeStyle=orthogonalEdgeStyle;rounded=0;orthogonalLoop=1;jettySize=auto;html=1;exitX=0.5;exitY=1;exitDx=0;exitDy=0;exitPerimeter=0;" edge="1" parent="1" source="fzq7VNugiyjxH4nTjP60-15">
          <mxGeometry relative="1" as="geometry">
            <mxPoint x="430" y="850" as="targetPoint" />
          </mxGeometry>
        </mxCell>
        <mxCell id="fzq7VNugiyjxH4nTjP60-15" value="salário &amp;lt; 3751.06" style="strokeWidth=2;html=1;shape=mxgraph.flowchart.decision;whiteSpace=wrap;fillColor=#e1d5e7;strokeColor=#9673a6;" vertex="1" parent="1">
          <mxGeometry x="375" y="710" width="110" height="100" as="geometry" />
        </mxCell>
        <mxCell id="fzq7VNugiyjxH4nTjP60-21" style="edgeStyle=orthogonalEdgeStyle;rounded=0;orthogonalLoop=1;jettySize=auto;html=1;exitX=1;exitY=0.5;exitDx=0;exitDy=0;exitPerimeter=0;entryX=0;entryY=0.5;entryDx=0;entryDy=0;" edge="1" parent="1" source="fzq7VNugiyjxH4nTjP60-16" target="fzq7VNugiyjxH4nTjP60-20">
          <mxGeometry relative="1" as="geometry" />
        </mxCell>
        <mxCell id="fzq7VNugiyjxH4nTjP60-25" style="edgeStyle=orthogonalEdgeStyle;rounded=0;orthogonalLoop=1;jettySize=auto;html=1;exitX=0.5;exitY=1;exitDx=0;exitDy=0;exitPerimeter=0;" edge="1" parent="1" source="fzq7VNugiyjxH4nTjP60-16">
          <mxGeometry relative="1" as="geometry">
            <mxPoint x="430" y="1000" as="targetPoint" />
          </mxGeometry>
        </mxCell>
        <mxCell id="fzq7VNugiyjxH4nTjP60-16" value="salário &amp;lt; 4664.68" style="strokeWidth=2;html=1;shape=mxgraph.flowchart.decision;whiteSpace=wrap;fillColor=#e1d5e7;strokeColor=#9673a6;" vertex="1" parent="1">
          <mxGeometry x="375" y="850" width="110" height="100" as="geometry" />
        </mxCell>
        <mxCell id="fzq7VNugiyjxH4nTjP60-17" value="irrf = salário * 15;" style="rounded=1;whiteSpace=wrap;html=1;absoluteArcSize=1;arcSize=14;strokeWidth=2;fillColor=#d5e8d4;strokeColor=#82b366;" vertex="1" parent="1">
          <mxGeometry x="520" y="740" width="70" height="40" as="geometry" />
        </mxCell>
        <mxCell id="fzq7VNugiyjxH4nTjP60-20" value="irrf = salário&lt;br&gt;* 22.5;" style="rounded=1;whiteSpace=wrap;html=1;absoluteArcSize=1;arcSize=14;strokeWidth=2;fillColor=#d5e8d4;strokeColor=#82b366;" vertex="1" parent="1">
          <mxGeometry x="520" y="880" width="70" height="40" as="geometry" />
        </mxCell>
        <mxCell id="fzq7VNugiyjxH4nTjP60-37" style="edgeStyle=orthogonalEdgeStyle;rounded=0;orthogonalLoop=1;jettySize=auto;html=1;exitX=0.5;exitY=1;exitDx=0;exitDy=0;entryX=0.5;entryY=0;entryDx=0;entryDy=0;" edge="1" parent="1" source="fzq7VNugiyjxH4nTjP60-26" target="fzq7VNugiyjxH4nTjP60-28">
          <mxGeometry relative="1" as="geometry" />
        </mxCell>
        <mxCell id="fzq7VNugiyjxH4nTjP60-26" value="&lt;br&gt;&lt;span style=&quot;font-size: 14px;&quot;&gt;O irrf é:&lt;br&gt;&lt;/span&gt;" style="rounded=1;whiteSpace=wrap;html=1;fillColor=#d5e8d4;strokeColor=#82b366;" vertex="1" parent="1">
          <mxGeometry x="370" y="1000" width="110" height="50" as="geometry" />
        </mxCell>
        <mxCell id="fzq7VNugiyjxH4nTjP60-28" value="&lt;font style=&quot;font-size: 14px;&quot;&gt;Fim&lt;/font&gt;" style="ellipse;whiteSpace=wrap;html=1;fillColor=#f8cecc;strokeColor=#b85450;" vertex="1" parent="1">
          <mxGeometry x="370" y="1090" width="110" height="60" as="geometry" />
        </mxCell>
      </root>
    </mxGraphModel>
  </diagram>
</mxfile>
